<?xml version="1.0" encoding="UTF-8"?>
<svg version="1.1" xmlns="http://www.w3.org/2000/svg" width="512" height="512">
<path d="M0 0 C1.17681691 -0.00644889 2.35363383 -0.01289778 3.56611186 -0.0195421 C5.49172561 -0.01489629 5.49172561 -0.01489629 7.45624065 -0.01015663 C8.84094019 -0.01389475 10.22563762 -0.01849692 11.61033171 -0.02388728 C15.41035316 -0.03611271 19.21028654 -0.03585736 23.01032317 -0.03349853 C27.11064644 -0.03309024 31.21094152 -0.04413057 35.31125164 -0.05361366 C43.34263105 -0.07022203 51.37398109 -0.07572313 59.40537623 -0.07683842 C65.93405086 -0.07778895 72.4627158 -0.08189951 78.99138737 -0.08823967 C97.50376197 -0.10585148 116.01611338 -0.11507861 134.52849642 -0.11357872 C135.52637001 -0.11349881 136.52424359 -0.1134189 137.55235577 -0.11333656 C139.05099491 -0.11321392 139.05099491 -0.11321392 140.57990959 -0.1130888 C156.77213679 -0.11227587 172.96427099 -0.13141539 189.15647129 -0.1596133 C205.78484381 -0.18834216 222.41317097 -0.2021536 239.04156893 -0.20042574 C248.37622168 -0.19976185 257.71077691 -0.20525379 267.0454073 -0.22678185 C274.99299248 -0.24499364 282.94043594 -0.24934098 290.88803295 -0.235763 C294.94184727 -0.22923338 298.99538968 -0.22911577 303.04917812 -0.2464695 C306.76337486 -0.26220576 310.47708423 -0.25933136 314.19126912 -0.24190123 C316.16469083 -0.23738357 318.13812769 -0.25248433 320.11149055 -0.26838052 C327.3269832 -0.21235916 332.76572739 0.61224444 339.03941631 4.25726891 C339.69298998 4.6355353 340.34656365 5.0138017 341.01994258 5.40353072 C347.85060114 9.57016926 352.02507394 16.65826944 354.03941631 24.25726891 C354.33338597 27.9198176 354.31783548 31.57162483 354.30684185 35.24440575 C354.31137296 36.35390845 354.31590408 37.46341114 354.3205725 38.60653514 C354.33323695 42.32584871 354.33159478 46.04501623 354.32994366 49.76434898 C354.33592761 52.43040575 354.34267624 55.09645107 354.35029888 57.76250267 C354.36689615 64.25382121 354.37240785 70.74510342 354.37352364 77.23644141 C354.37447471 82.51416336 354.37858796 87.79187335 354.38492489 93.06959152 C354.40253377 108.04036546 354.4117643 123.01111075 354.41026394 137.98189513 C354.41018403 138.78860099 354.41010412 139.59530686 354.41002178 140.42645836 C354.40994002 141.23415177 354.40985826 142.04184519 354.40977402 142.87401416 C354.40896121 155.96231816 354.42809863 169.05050706 354.45629852 182.13877777 C354.4850406 195.58503694 354.49883808 209.03123999 354.49711096 222.47753066 C354.49644752 230.02366955 354.50191967 237.56968777 354.52346706 245.11579895 C354.54169632 251.54092583 354.54601197 257.96587733 354.53244822 264.3910189 C354.52592723 267.66717305 354.52795189 270.9429218 354.54315472 274.21905708 C354.5585908 277.77606497 354.5493085 281.3321922 354.53389263 284.88918114 C354.54417976 285.91721078 354.55446688 286.94524043 354.56506574 288.00442249 C354.47759553 297.15033313 351.41237492 305.53025705 345.03941631 312.25726891 C337.39488314 318.40120853 330.81444092 320.63796456 321.11056805 320.12526512 C320.22151463 320.08801801 319.33246121 320.0507709 318.41646677 320.01239508 C316.47108407 319.93023434 314.52589996 319.84326462 312.58091831 319.7521019 C307.15985225 319.49967105 301.73718754 319.28716445 296.31454754 319.07167625 C295.15652406 319.02495738 293.99850057 318.9782385 292.80538547 318.9301039 C276.51487897 318.28920833 260.21512026 317.9779764 243.91579628 317.65214062 C230.69788478 317.37849501 217.50194543 316.99264165 204.29649639 316.33807945 C138.02300801 310.92813783 138.02300801 310.92813783 79.93034708 337.06962383 C66.13583118 349.63141576 54.38933477 364.32540318 43.92908859 379.72914219 C41.82471269 382.5445134 40.27051821 384.05904063 36.73472881 384.62836266 C29.75060569 384.80880353 29.75060569 384.80880353 25.97691631 381.88226891 C23.21891993 378.14562865 22.9157679 376.39365066 22.92589092 371.79779625 C22.92596645 370.65676445 22.92604198 369.51573265 22.9261198 368.34012413 C22.93128109 367.10364128 22.93644238 365.86715843 22.94176006 364.59320641 C22.94317501 363.33086174 22.94458996 362.06851707 22.94604778 360.76791954 C22.95070554 357.41088592 22.95969224 354.0539199 22.97075176 350.69690514 C22.98097861 347.27171984 22.98554814 343.84652757 22.99058819 340.42133141 C23.00163393 333.69995848 23.01838438 326.9786176 23.03941631 320.25726891 C22.12425747 320.27368431 21.20909863 320.29009972 20.2662077 320.30701256 C17.74334682 320.35226567 15.22047324 320.39681408 12.69758892 320.44074059 C10.69318386 320.47782675 8.68880701 320.51780435 6.6847105 320.56891441 C-1.4268751 320.77443075 -7.90961381 320.48880755 -14.96058369 316.25726891 C-15.61252705 315.87868736 -16.26447041 315.50010582 -16.93616962 315.11005211 C-23.77287291 310.95557511 -27.94728104 303.85234603 -29.96058369 296.25726891 C-30.25455335 292.59472021 -30.23900286 288.94291298 -30.22800922 285.27013206 C-30.23480589 283.60587802 -30.23480589 283.60587802 -30.24173987 281.90800267 C-30.25440433 278.1886891 -30.25276215 274.46952158 -30.25111103 270.75018883 C-30.25709499 268.08413206 -30.26384362 265.41808674 -30.27146626 262.75203514 C-30.28806352 256.2607166 -30.29357522 249.76943439 -30.29469101 243.2780964 C-30.29564208 238.00037445 -30.29975533 232.72266446 -30.30609226 227.44494629 C-30.32370115 212.47417235 -30.33293168 197.50342706 -30.33143131 182.53264268 C-30.3313514 181.72593682 -30.33127149 180.91923095 -30.33118916 180.08807945 C-30.33110739 179.28038604 -30.33102563 178.47269262 -30.33094139 177.64052365 C-30.33012858 164.55221965 -30.349266 151.46403075 -30.37746589 138.37576004 C-30.40620797 124.92950087 -30.42000546 111.48329782 -30.41827834 98.03700715 C-30.41761489 90.49086826 -30.42308704 82.94485005 -30.44463444 75.39873886 C-30.46286369 68.97361198 -30.46717934 62.54866048 -30.45361559 56.12351891 C-30.4470946 52.84736476 -30.44911926 49.57161601 -30.46432209 46.29548073 C-30.47975817 42.73847284 -30.47047588 39.18234561 -30.45506001 35.62535667 C-30.46534713 34.59732703 -30.47563426 33.56929738 -30.48623312 32.51011533 C-30.3987629 23.36420468 -27.33354229 14.98428076 -20.96058369 8.25726891 C-14.53663266 3.09431567 -8.37097772 0.011636 0 0 Z M-6.96058369 27.25726891 C-8.13065557 29.59741267 -8.08992256 30.97044948 -8.09759808 33.57835579 C-8.10267262 34.49128733 -8.10774716 35.40421888 -8.11297548 36.34481502 C-8.11347324 37.35432507 -8.11397099 38.36383512 -8.11448383 39.40393639 C-8.11886609 40.47130256 -8.12324834 41.53866873 -8.12776339 42.63837934 C-8.14118932 46.23888331 -8.14733874 49.83936279 -8.15345478 53.43988609 C-8.16135271 56.01169509 -8.16962147 58.58350298 -8.17823505 61.15530968 C-8.20277006 68.89056582 -8.21738783 76.62582843 -8.23029512 84.36111152 C-8.23400626 86.54535742 -8.23797955 88.72960267 -8.24204779 90.91384792 C-8.26728354 104.47333646 -8.28933995 118.03282599 -8.30177593 131.59233284 C-8.3047057 134.73390011 -8.30766736 137.87546734 -8.31068134 141.01703453 C-8.31142739 141.79787074 -8.31217344 142.57870694 -8.3129421 143.38320485 C-8.32559744 156.03408531 -8.35882216 168.68482527 -8.40048318 181.33564004 C-8.44289121 194.31957577 -8.46646965 207.30343954 -8.4716965 220.28744435 C-8.47511192 227.57928789 -8.48688228 234.87091188 -8.51979923 242.1626873 C-8.5507095 249.02124559 -8.55622293 255.87941503 -8.54441547 262.73803139 C-8.54419401 265.25756697 -8.55255906 267.77711988 -8.57006931 270.29659462 C-8.59265136 273.73241767 -8.58451534 277.16683806 -8.5685854 280.60266685 C-8.58246748 281.60325402 -8.59634957 282.60384119 -8.61065233 283.63474917 C-8.55908889 288.13834448 -8.43919383 291.27223627 -5.54758358 294.86068153 C-1.41320472 298.6907552 1.71227426 298.41762142 7.11754131 298.46820641 C8.76989479 298.4962857 10.4222384 298.52495023 12.07457256 298.55414391 C14.67922357 298.59532416 17.28369261 298.63221084 19.88853741 298.65863609 C22.40275953 298.68635419 24.9161448 298.73223571 27.43004131 298.78070641 C28.20212933 298.78395927 28.97421734 298.78721214 29.76970196 298.79056358 C34.53882517 298.89822391 37.95420184 299.54073236 42.03941631 302.25726891 C43.74466693 305.01977218 44.29705342 307.15948986 44.35826397 310.38324547 C44.37813366 311.18377342 44.39800335 311.98430138 44.41847515 312.80908775 C44.43002636 313.66339378 44.44157757 314.51769981 44.45347881 315.39789391 C44.47284496 316.28007591 44.49221111 317.16225792 44.51216412 318.07117271 C44.57184479 320.88310706 44.61829915 323.6950826 44.66441631 326.50726891 C44.7026067 328.41614072 44.74165905 330.3249955 44.78160381 332.23383141 C44.87753689 336.90817186 44.96161048 341.58259299 45.03941631 346.25726891 C50.72169654 341.54393515 55.90766372 336.47524982 61.07847881 331.21039391 C62.80996086 329.46141004 64.54174049 327.71272075 66.27379131 325.96430016 C68.98055854 323.22648298 71.68492162 320.48641387 74.38414288 317.74115562 C77.00470208 315.07832933 79.63456411 312.42498727 82.26597881 309.77289391 C83.0712904 308.94896141 83.87660198 308.12502892 84.70631695 307.27612877 C85.84307369 306.1341906 85.84307369 306.1341906 87.00279522 304.96918297 C87.66340954 304.29889061 88.32402386 303.62859825 89.00465679 302.937994 C94.01882106 298.79626047 99.0945337 298.97445498 105.29403973 299.01244164 C106.69679806 299.00904478 106.69679806 299.00904478 108.12789494 299.00557929 C111.26310325 299.00028007 114.39811428 299.00911715 117.5333128 299.01776695 C119.78044479 299.01665416 122.02757649 299.0145965 124.27470684 299.01166344 C129.11466813 299.00693925 133.95458091 299.00806339 138.79454136 299.01343918 C146.44594995 299.02103933 154.09726477 299.01040457 161.74866009 298.9962368 C172.47456578 298.97761829 183.20046106 298.96236512 193.9263792 298.95380211 C194.94705332 298.95298002 194.94705332 298.95298002 195.98834712 298.95214132 C207.01911133 298.94367912 218.04985115 298.94702199 229.08061551 298.95295646 C240.41036601 298.95857403 251.73996725 298.94473452 263.06969029 298.91540366 C270.6775624 298.89672052 278.28500749 298.90009554 285.89287269 298.91957128 C290.62410948 298.92644372 295.3551137 298.91251409 300.08630657 298.89262199 C302.28170349 298.88756667 304.47713923 298.89108022 306.67250538 298.90375519 C309.66818207 298.9198225 312.66220736 298.90525526 315.65780926 298.8830471 C316.52794877 298.8950846 317.39808828 298.9071221 318.29459566 298.91952437 C322.51758195 298.85562021 325.21597528 298.54390662 328.56326675 295.84315777 C331.66932232 292.59944639 332.16367372 291.270618 332.1764307 286.93618202 C332.18150524 286.02325048 332.18657979 285.11031893 332.1918081 284.1697228 C332.19230586 283.16021274 332.19280362 282.15070269 332.19331646 281.11060143 C332.19769871 280.04323525 332.20208097 278.97586908 332.20659602 277.87615848 C332.22002194 274.2756545 332.22617137 270.67517502 332.23228741 267.07465172 C332.24018534 264.50284272 332.24845409 261.93103484 332.25706768 259.35922813 C332.28160269 251.62397199 332.29622046 243.88870938 332.30912775 236.15342629 C332.31283888 233.9691804 332.31681218 231.78493514 332.32088041 229.60068989 C332.34611617 216.04120135 332.36817258 202.48171182 332.38060856 188.92220497 C332.38353833 185.7806377 332.38649998 182.63907047 332.38951397 179.49750328 C332.39063305 178.32624897 332.39063305 178.32624897 332.39177473 177.13133296 C332.40443007 164.4804525 332.43765479 151.82971254 332.4793158 139.17889777 C332.52172384 126.19496204 332.54530228 113.21109827 332.55052912 100.22709346 C332.55394455 92.93524992 332.5657149 85.64362593 332.59863186 78.35185051 C332.62954212 71.49329222 332.63505556 64.63512278 332.6232481 57.77650642 C332.62302663 55.25697084 332.63139168 52.73741793 332.64890194 50.21794319 C332.67148399 46.78212014 332.66334797 43.34769975 332.64741802 39.91187096 C332.66130011 38.91128379 332.6751822 37.91069663 332.68948495 36.87978864 C332.63792152 32.37619333 332.51802645 29.24230154 329.62641621 25.65385628 C326.04868562 22.33945956 324.48054821 22.13150658 319.71881771 22.12025452 C318.58294885 22.11517997 317.44707999 22.11010543 316.27679086 22.10487711 C315.01826011 22.10437936 313.75972937 22.1038816 312.46306133 22.10336876 C311.12092516 22.09935541 309.7787902 22.09491741 308.43665671 22.0900892 C304.7358469 22.07810359 301.03505013 22.07247066 297.3342247 22.06790805 C293.34773239 22.06195949 289.36125574 22.05034781 285.37477398 22.03961754 C275.7410934 22.01507673 266.10740764 22.00046411 256.47370541 21.98755747 C253.7538405 21.98384682 251.03397611 21.97987349 248.31411171 21.97580481 C231.43296663 21.95057005 214.55182076 21.9285116 197.67066097 21.91607666 C193.75907418 21.91314684 189.84748742 21.9101852 185.93590069 21.90717125 C184.47754736 21.90605217 184.47754736 21.90605217 182.98973235 21.90491049 C167.23493276 21.89225291 151.48024593 21.85902543 135.72549906 21.81736942 C119.5594486 21.77497542 103.39345591 21.75138458 87.22735 21.7461561 C78.14700204 21.74273914 69.0668303 21.7309505 59.98653698 21.69805336 C52.25431818 21.6700865 44.5223117 21.65903867 36.79004624 21.67024882 C32.8439001 21.67544413 28.89819882 21.6724928 24.95211697 21.64778328 C21.33960626 21.62535105 17.72786152 21.62598264 14.11533794 21.64498715 C12.18919369 21.64912646 10.26304524 21.62859683 8.33701539 21.60720026 C1.46697251 21.67056038 -2.35293928 21.9470688 -6.96058369 27.25726891 Z " fill="#FED035" transform="translate(157.9605836868286,-0.25726890563964844)"/>
<path d="M0 0 C7.26 0 14.52 0 22 0 C22 42.24 22 84.48 22 128 C50.05 128 78.1 128 107 128 C107 135.26 107 142.52 107 150 C78.95 150 50.9 150 22 150 C19.96507259 168.37149109 19.96507259 168.37149109 26.75543314 189.7887302 C29.63471097 191.34251875 31.64424251 191.37712174 34.91306973 191.38031673 C36.73872327 191.39297665 36.73872327 191.39297665 38.6012587 191.40589231 C39.95377308 191.40009692 41.30628626 191.39401588 42.65879822 191.38768005 C44.09412175 191.39185165 45.52944198 191.3973282 46.96475607 191.40399987 C50.91387873 191.41849626 54.86279343 191.41419675 58.81192768 191.40683305 C63.06899994 191.40211401 67.32602639 191.4146 71.58308411 191.42485046 C79.92489974 191.44206865 88.26664015 191.44287223 96.60846894 191.43763756 C103.38703866 191.43360026 110.16558609 191.43503418 116.94415474 191.44038582 C117.90799488 191.44113424 118.87183501 191.44188266 119.86488243 191.44265376 C121.82276364 191.4441852 123.78064485 191.44572355 125.73852605 191.44726873 C144.10958204 191.46100468 162.48059546 191.45554838 180.85165048 191.44408352 C197.667496 191.43414983 214.4832315 191.44709222 231.29906004 191.47101771 C248.55564166 191.49538577 265.81217199 191.50502224 283.06877047 191.49836498 C292.76102272 191.49486768 302.45319034 191.49713849 312.14542961 191.51461601 C320.3962132 191.52930935 328.64685257 191.53001111 336.89763325 191.5125451 C341.10889997 191.50400901 345.31990873 191.50194882 349.53116226 191.51719666 C353.3846312 191.53097655 357.23761957 191.52636782 361.09106023 191.50695742 C362.48671209 191.50317637 363.88240183 191.50617963 365.27802014 191.51656907 C367.17233867 191.52967067 369.06678662 191.51581359 370.96108913 191.50057125 C372.01416364 191.50046391 373.06723815 191.50035658 374.152224 191.50024599 C377.77553746 190.86376755 379.43565885 189.60382751 382 187 C384.99563953 175.01744187 383.62588875 162.34567116 384 150 C317.01 150 250.02 150 181 150 C181 142.74 181 135.48 181 128 C247.99 128 314.98 128 384 128 C384 121.07 384 114.14 384 107 C391.26 107 398.52 107 406 107 C406.11338233 117.48420259 406.20493469 127.96799177 406.25906086 138.45267105 C406.28505097 143.32219645 406.32025334 148.19127727 406.37719727 153.06054688 C406.43189756 157.76792462 406.46149996 162.47487725 406.47438622 167.18254852 C406.48355837 168.97015821 406.501468 170.7577471 406.52865028 172.54517365 C406.70911379 184.91437076 406.11587822 195.756251 397.375 205.4375 C385.67083393 215.7459098 372.92569677 214.66336879 358.17578125 214.48828125 C355.85980496 214.4789437 353.54381872 214.47183204 351.22782898 214.46684265 C345.1630171 214.4478473 339.09881386 214.39881061 333.03424072 214.34332275 C326.83345775 214.29196904 320.63257543 214.26929425 314.43164062 214.24414062 C302.2874514 214.19068464 290.14387179 214.10280962 278 214 C278 227.86 278 241.72 278 256 C284.93 256 291.86 256 299 256 C299 263.26 299 270.52 299 278 C235.64 278 172.28 278 107 278 C107 270.74 107 263.48 107 256 C113.93 256 120.86 256 128 256 C128 242.14 128 228.28 128 214 C124.91237305 214.0314209 121.82474609 214.0628418 118.64355469 214.09521484 C108.40982901 214.19490391 98.17608115 214.26101604 87.94199753 214.31087303 C81.74069149 214.34210442 75.5398855 214.38442838 69.33886719 214.45263672 C63.34768043 214.51812003 57.35697281 214.55376758 51.36545563 214.56926346 C49.08660598 214.5802978 46.80778076 214.60184497 44.52913666 214.63438034 C21.43781977 214.95079262 21.43781977 214.95079262 12 208 C11.31548767 207.49914886 10.63097534 206.99829773 9.92572021 206.48226929 C3.66733603 201.08360057 0.2050787 193.05134791 -0.44924355 184.88878632 C-0.67600085 180.02200047 -0.61967499 175.15834548 -0.56762695 170.28808594 C-0.56621414 168.42427102 -0.56701302 166.56045333 -0.56983948 164.69664001 C-0.57126592 159.67040339 -0.54200184 154.64477122 -0.50696969 149.61867428 C-0.47557676 144.35366368 -0.47276529 139.08863711 -0.46684265 133.82354736 C-0.4513421 123.86838589 -0.41036509 113.91350106 -0.3600952 103.95846105 C-0.30408355 92.61865534 -0.27668555 81.27883597 -0.25161803 69.93892622 C-0.19944574 46.6257926 -0.11056265 23.31292354 0 0 Z M150 214 C150 227.86 150 241.72 150 256 C184.98 256 219.96 256 256 256 C256 242.14 256 228.28 256 214 C221.02 214 186.04 214 150 214 Z " fill="#3899FE" transform="translate(53,234)"/>
<path d="M0 0 C1.21563377 -0.00043808 1.21563377 -0.00043808 2.45582581 -0.00088501 C5.11795999 0.00050141 7.77980961 0.01603004 10.44189453 0.03173828 C12.29419807 0.03547086 14.14650359 0.03831668 15.99880981 0.04031372 C20.8617096 0.0479309 25.72448894 0.06756291 30.58734131 0.08972168 C35.55446748 0.11022141 40.52161321 0.11932426 45.48876953 0.12939453 C55.22580999 0.15081065 64.96272963 0.18597715 74.69970703 0.22705078 C74.69970703 7.48705078 74.69970703 14.74705078 74.69970703 22.22705078 C72.36303955 22.23639648 70.02637207 22.24574219 67.61889648 22.25537109 C59.89542295 22.28915007 52.17221636 22.34470405 44.44895649 22.41095352 C39.76665668 22.45044971 35.08454553 22.48262763 30.40209961 22.49804688 C25.88257985 22.51319943 21.36357869 22.54761981 16.84428978 22.5953598 C15.12078549 22.61018811 13.39720717 22.61809263 11.6736393 22.61893463 C9.25769496 22.62130176 6.84318682 22.64835864 4.42749023 22.68115234 C3.71610901 22.67612198 3.00472778 22.67109161 2.27178955 22.66590881 C-2.50474008 22.76611573 -4.94094048 23.84933417 -8.30029297 27.22705078 C-9.73705602 30.10057689 -9.4514664 32.5890412 -9.47729492 35.80053711 C-9.48386612 36.47554764 -9.49043732 37.15055817 -9.49720764 37.84602356 C-9.51694559 40.08371082 -9.52860454 42.32133093 -9.53857422 44.55908203 C-9.54264975 45.3232865 -9.54672527 46.08749096 -9.5509243 46.87485313 C-9.57178765 50.92006536 -9.58608792 54.96524364 -9.59545898 59.01049805 C-9.60652121 63.18704528 -9.64091758 67.3630594 -9.68063068 71.53941822 C-9.706788 74.75222254 -9.71515002 77.9648997 -9.71874046 81.17780113 C-9.72360914 82.71717617 -9.73523127 84.25654542 -9.75377846 85.79581642 C-9.77815165 87.95276625 -9.77720916 90.10833522 -9.77026367 92.26538086 C-9.77612991 93.49178787 -9.78199615 94.71819489 -9.78804016 95.98176575 C-9.20837219 99.8386568 -8.00982578 101.47644262 -5.30029297 104.22705078 C-2.6635436 105.54542546 -0.61366729 105.38788933 2.33642578 105.43798828 C3.47144531 105.46634766 4.60646484 105.49470703 5.77587891 105.52392578 C8.16375137 105.57558338 10.55179316 105.61997734 12.93994141 105.65673828 C14.08140625 105.68767578 15.22287109 105.71861328 16.39892578 105.75048828 C17.95873169 105.78021729 17.95873169 105.78021729 19.55004883 105.81054688 C26.27046662 106.69924021 30.53644109 109.56287914 35.19580078 114.33251953 C35.67420914 114.81658768 36.15261749 115.30065582 36.64552307 115.7993927 C38.15251402 117.32854913 39.64489119 118.87108361 41.13720703 120.41455078 C42.16426246 121.4616969 43.19224949 122.50793016 44.22119141 123.55322266 C46.72487714 126.1007111 49.21566487 128.66038729 51.69970703 131.22705078 C51.72548828 130.06947266 51.75126953 128.91189453 51.77783203 127.71923828 C51.83414052 126.1801395 51.89148723 124.64107845 51.94970703 123.10205078 C51.96388672 122.34150391 51.97806641 121.58095703 51.99267578 120.79736328 C52.21830621 115.5627373 53.11415577 112.29479686 56.69970703 108.22705078 C60.69756638 106.14707151 64.04860939 106.01187709 68.51220703 106.10205078 C70.254375 106.12912109 70.254375 106.12912109 72.03173828 106.15673828 C72.91216797 106.17994141 73.79259766 106.20314453 74.69970703 106.22705078 C74.81580289 113.6855121 74.90452348 121.14377709 74.95876789 128.60296059 C74.98480929 132.06701303 75.02010395 135.53044516 75.0769043 138.99414062 C75.14186389 142.98055472 75.1659329 146.96672184 75.18798828 150.95361328 C75.21379471 152.19132477 75.23960114 153.42903625 75.26618958 154.70425415 C75.26931375 164.30663377 75.26931375 164.30663377 72.29418945 167.99414062 C68.82151489 170.9828563 66.53187262 171.78590505 61.87304688 171.67431641 C52.60499428 169.76698408 42.37239636 154.95090094 35.82666016 148.33349609 C32.29692229 144.76857196 28.74868837 141.22446283 25.17459106 137.70401001 C23.90883972 136.43647772 22.68180908 135.13048547 21.46313477 133.81762695 C17.78748023 130.08316953 15.25925849 128.83307387 9.98486328 128.46533203 C7.91051744 128.45612441 5.83576251 128.48155824 3.76220703 128.53955078 C-7.03753861 128.72145542 -16.20708823 126.89429737 -24.30029297 119.22705078 C-30.04647578 112.07742239 -32.60255288 105.56598841 -32.59082031 96.3449707 C-32.59753754 95.57826553 -32.60425476 94.81156036 -32.61117554 94.0216217 C-32.63009126 91.50018742 -32.63407654 88.97902026 -32.63623047 86.45751953 C-32.64266318 84.69403476 -32.64939189 82.93055105 -32.65640259 81.16706848 C-32.66835952 77.47439095 -32.67208508 73.78180685 -32.67089844 70.08911133 C-32.67069541 65.37498341 -32.69798746 60.66145945 -32.73244286 55.94747448 C-32.75476449 52.30558054 -32.75873436 48.6638307 -32.75767899 45.02187538 C-32.76002741 43.28486362 -32.76880788 41.54784742 -32.78434372 39.81090355 C-32.92455573 22.51492627 -32.92455573 22.51492627 -28.30029297 15.22705078 C-27.73282852 14.25514046 -27.73282852 14.25514046 -27.15390015 13.26359558 C-21.28063959 3.53763793 -10.84905278 -0.10338844 0 0 Z " fill="#455D76" transform="translate(32.30029296875,63.77294921875)"/>
<path d="M0 0 C6.14545412 5.21539497 10.35437174 12.13518851 11.34338379 20.21737671 C11.48269319 23.01174606 11.53334935 25.79200599 11.54296875 28.58984375 C11.55295395 29.61547424 11.56293915 30.64110474 11.57322693 31.69781494 C11.58835099 33.85937493 11.5954545 36.02100434 11.5949707 38.18261719 C11.60151675 41.45757917 11.65601904 44.7294815 11.71289062 48.00390625 C11.82270616 61.63827241 10.90049942 70.89877937 1.9140625 81.66796875 C-6.80991583 89.27348832 -15.45596638 90.18959102 -26.6484375 90.29296875 C-27.71755371 90.3077124 -28.78666992 90.32245605 -29.88818359 90.33764648 C-40.15011031 90.20469522 -48.49270277 86.8528063 -55.9609375 79.73046875 C-62.43474622 71.73509967 -64.27411261 64.63004209 -64.33203125 54.50390625 C-64.34105972 53.51983795 -64.3500882 52.53576965 -64.35939026 51.5218811 C-64.37386387 49.44251531 -64.3827723 47.36310427 -64.38647461 45.28369141 C-64.39832167 42.13624105 -64.44749508 38.99078435 -64.49804688 35.84375 C-64.60755575 22.41910935 -64.0123322 12.34062735 -54.9609375 1.73046875 C-52.77734375 0 -52.77734375 0 -50.5234375 -1.45703125 C-49.41162109 -2.18986328 -49.41162109 -2.18986328 -48.27734375 -2.9375 C-34.17634578 -11.04616831 -13.0031456 -9.30437097 0 0 Z M-39.2734375 18.66796875 C-42.4730894 22.57865441 -42.13611665 26.6601102 -42.1640625 31.46875 C-42.16976257 32.22713669 -42.17546265 32.98552338 -42.18133545 33.76689148 C-42.19077606 35.37151702 -42.19731571 36.97616187 -42.20117188 38.58081055 C-42.21086077 41.0236233 -42.2418849 43.46558836 -42.2734375 45.90820312 C-42.27996977 47.47004711 -42.28521936 49.03189709 -42.2890625 50.59375 C-42.3014093 51.3189534 -42.3137561 52.0441568 -42.32647705 52.79133606 C-42.30594387 57.51627694 -41.46212759 60.72248793 -38.9609375 64.73046875 C-33.59095945 68.9699251 -26.48025672 68.35873856 -19.9609375 67.73046875 C-15.44814557 66.52750065 -13.46033836 64.6544439 -10.9609375 60.73046875 C-10.39631919 57.84956341 -10.42318803 55.03372971 -10.46484375 52.10546875 C-10.46338852 51.28095215 -10.46193329 50.45643555 -10.46043396 49.60693359 C-10.46208929 47.86877905 -10.47360956 46.13060929 -10.49438477 44.39257812 C-10.52334497 41.73894707 -10.51498567 39.08731503 -10.50195312 36.43359375 C-10.50819108 34.74087575 -10.51658247 33.04816404 -10.52734375 31.35546875 C-10.52440811 30.56575684 -10.52147247 29.77604492 -10.51844788 28.96240234 C-10.59638024 24.38954551 -11.06890217 21.33480089 -13.9609375 17.73046875 C-21.62059039 13.1972048 -32.19932884 12.74101285 -39.2734375 18.66796875 Z " fill="#FED035" transform="translate(340.9609375,113.26953125)"/>
<path d="M0 0 C66.99 0 133.98 0 203 0 C203 7.26 203 14.52 203 22 C136.01 22 69.02 22 0 22 C0 14.74 0 7.48 0 0 Z " fill="#455D76" transform="translate(234,362)"/>
<path d="M0 0 C63.36 0 126.72 0 192 0 C192 7.26 192 14.52 192 22 C128.64 22 65.28 22 0 22 C0 14.74 0 7.48 0 0 Z " fill="#FED035" transform="translate(160,490)"/>
<path d="M0 0 C2.76101146 1.82109266 4.52100548 3.04201097 6 6 C6.08977728 7.51164392 6.11757433 9.02720179 6.11352539 10.54150391 C6.11341209 11.95274033 6.11341209 11.95274033 6.11329651 13.39248657 C6.10813522 14.41023163 6.10297394 15.42797668 6.09765625 16.4765625 C6.0962413 17.51694672 6.09482635 18.55733093 6.09336853 19.62924194 C6.08775866 22.96119021 6.07520447 26.29307195 6.0625 29.625 C6.05748627 31.88020736 6.05292314 34.13541578 6.04882812 36.390625 C6.03778602 41.92710907 6.02051475 47.46354325 6 53 C9.63 53 13.26 53 17 53 C17 60.26 17 67.52 17 75 C13.37 75 9.74 75 6 75 C6 81.93 6 88.86 6 96 C-1.26 96 -8.52 96 -16 96 C-16 89.07 -16 82.14 -16 75 C-19.57714844 75.05220703 -19.57714844 75.05220703 -23.2265625 75.10546875 C-25.54995528 75.12890086 -27.87333463 75.14709655 -30.19677734 75.16479492 C-31.80491072 75.17983176 -33.41300344 75.20026672 -35.02099609 75.22631836 C-37.33962064 75.26292822 -39.65770049 75.27977722 -41.9765625 75.29296875 C-43.04567368 75.31619453 -43.04567368 75.31619453 -44.13638306 75.33988953 C-48.83919316 75.34145604 -52.02039439 74.50607597 -56 72 C-58.88666103 67.9959218 -59.33261321 65.00132802 -58.62231445 60.13842773 C-57.46693446 56.16825379 -54.82486721 53.42037684 -52.125 50.375 C-50.92855442 48.96710795 -49.73326042 47.55823655 -48.5390625 46.1484375 C-47.9399707 45.45073242 -47.34087891 44.75302734 -46.72363281 44.03417969 C-44.22837482 41.08935114 -41.86204049 38.05190211 -39.5 35 C-34.95521727 29.174985 -30.32003348 23.42719335 -25.64257812 17.70825195 C-21.93709854 13.1750592 -18.31640507 8.58598033 -14.78125 3.91796875 C-10.22520717 -0.98777035 -6.22543561 -1.88649564 0 0 Z M-17 43 C-18.22210816 44.45070394 -19.40313436 45.93618005 -20.5625 47.4375 C-21.20316406 48.26121094 -21.84382813 49.08492187 -22.50390625 49.93359375 C-24.09774009 51.70980819 -24.09774009 51.70980819 -24 53 C-21.36 53 -18.72 53 -16 53 C-16 49.7 -16 46.4 -16 43 C-16.33 43 -16.66 43 -17 43 Z " fill="#455D76" transform="translate(421,107)"/>
<path d="M0 0 C3.83963955 3.51025959 5.31197736 5.75718228 5.56762695 10.99560547 C5.56684099 12.95297802 5.538924 14.91047004 5.48828125 16.8671875 C5.48120651 17.90191193 5.47413177 18.93663635 5.46684265 20.00271606 C5.43894587 23.29422554 5.37621368 26.58400826 5.3125 29.875 C5.28741115 32.11195453 5.26459901 34.34893583 5.24414062 36.5859375 C5.18913418 42.05795282 5.10289189 47.52868406 5 53 C8.63 53 12.26 53 16 53 C16 60.26 16 67.52 16 75 C12.37 75 8.74 75 5 75 C5 81.93 5 88.86 5 96 C-2.26 96 -9.52 96 -17 96 C-17 89.07 -17 82.14 -17 75 C-20.59455078 75.05220703 -20.59455078 75.05220703 -24.26171875 75.10546875 C-26.59170339 75.12888861 -28.92167473 75.14709129 -31.25170898 75.16479492 C-32.86667789 75.17984876 -34.48160613 75.20029648 -36.09643555 75.22631836 C-38.42246555 75.26285286 -40.74795341 75.27976015 -43.07421875 75.29296875 C-44.15107185 75.31619453 -44.15107185 75.31619453 -45.24967957 75.33988953 C-50.72730278 75.34171393 -53.79622956 73.97579419 -57.8125 70.375 C-59.80749899 66.38500202 -60.17202861 63.34414951 -59 59 C-56.53750119 54.97143836 -53.60208127 51.41183483 -50.54882812 47.82714844 C-48.39229394 45.28309077 -46.30171686 42.68760215 -44.20556641 40.09375 C-42.55206171 38.04959561 -40.88979022 36.01280964 -39.2265625 33.9765625 C-36.25603527 30.32826792 -33.33676085 26.64254997 -30.4375 22.9375 C-29.99849365 22.37909424 -29.5594873 21.82068848 -29.10717773 21.24536133 C-26.66085286 18.13197871 -24.23488587 15.0043652 -21.82421875 11.86328125 C-20.75810227 10.49196217 -19.69170249 9.12086329 -18.625 7.75 C-18.13700928 7.10538818 -17.64901855 6.46077637 -17.14624023 5.79663086 C-12.72159836 0.14845947 -7.30039509 -3.09713731 0 0 Z M-18 43 C-19.22210816 44.45070394 -20.40313436 45.93618005 -21.5625 47.4375 C-22.20316406 48.26121094 -22.84382813 49.08492187 -23.50390625 49.93359375 C-25.09774009 51.70980819 -25.09774009 51.70980819 -25 53 C-22.36 53 -19.72 53 -17 53 C-17 49.7 -17 46.4 -17 43 C-17.33 43 -17.66 43 -18 43 Z " fill="#455D76" transform="translate(251,107)"/>
<path d="M0 0 C28.05 0 56.1 0 85 0 C85 7.26 85 14.52 85 22 C56.95 22 28.9 22 0 22 C0 14.74 0 7.48 0 0 Z " fill="#455D76" transform="translate(75,362)"/>
<path d="M0 0 C7.26 0 14.52 0 22 0 C22.08172489 3.93792886 22.14085256 7.87412352 22.1875 11.8125 C22.21263672 12.91271484 22.23777344 14.01292969 22.26367188 15.14648438 C22.3737118 27.58099564 20.04868289 36.71967026 11.3359375 45.71875 C4.47383586 52.11084468 -3.72301279 54.14501019 -12.95703125 54.09765625 C-14.06884766 54.09443359 -15.18066406 54.09121094 -16.32617188 54.08789062 C-17.47666016 54.07951172 -18.62714844 54.07113281 -19.8125 54.0625 C-21.56723633 54.05573242 -21.56723633 54.05573242 -23.35742188 54.04882812 C-26.23830323 54.03706943 -29.11915819 54.01913474 -32 54 C-32 46.74 -32 39.48 -32 32 C-21.9375 31.6875 -21.9375 31.6875 -18.80834961 31.61206055 C-13.21278376 31.39022418 -8.79117132 31.02174004 -4 28 C-0.44481876 22.3630219 -0.46986411 16.58980022 -0.3125 10.0625 C-0.209375 6.741875 -0.10625 3.42125 0 0 Z " fill="#389AFF" transform="translate(448,224)"/>
<path d="M0 0 C1.11181641 0.00322266 2.22363281 0.00644531 3.36914062 0.00976562 C4.51962891 0.01814453 5.67011719 0.02652344 6.85546875 0.03515625 C8.02529297 0.03966797 9.19511719 0.04417969 10.40039062 0.04882812 C13.28127198 0.06058682 16.16212694 0.07852151 19.04296875 0.09765625 C19.04296875 7.35765625 19.04296875 14.61765625 19.04296875 22.09765625 C8.98046875 22.41015625 8.98046875 22.41015625 5.85131836 22.4855957 C0.25575251 22.70743207 -4.16585993 23.07591621 -8.95703125 26.09765625 C-12.51221249 31.73463435 -12.48716714 37.50785603 -12.64453125 44.03515625 C-12.74765625 47.35578125 -12.85078125 50.67640625 -12.95703125 54.09765625 C-20.21703125 54.09765625 -27.47703125 54.09765625 -34.95703125 54.09765625 C-35.03875614 50.15972739 -35.09788381 46.22353273 -35.14453125 42.28515625 C-35.16966797 41.18494141 -35.19480469 40.08472656 -35.22070312 38.95117188 C-35.33074305 26.51666061 -33.00571414 17.37798599 -24.29296875 8.37890625 C-17.43086711 1.98681157 -9.23401846 -0.04735394 0 0 Z " fill="#389AFF" transform="translate(204.95703125,41.90234375)"/>
<path d="M0 0 C21.45 0 42.9 0 65 0 C65 7.26 65 14.52 65 22 C43.55 22 22.1 22 0 22 C0 14.74 0 7.48 0 0 Z " fill="#389AFF" transform="translate(42,117)"/>
<path d="M0 0 C7.26 0 14.52 0 22 0 C22 14.19 22 28.38 22 43 C14.74 43 7.48 43 0 43 C0 28.81 0 14.62 0 0 Z " fill="#465D75" transform="translate(309,448)"/>
<path d="M0 0 C7.26 0 14.52 0 22 0 C22 14.19 22 28.38 22 43 C14.74 43 7.48 43 0 43 C0 28.81 0 14.62 0 0 Z " fill="#465D75" transform="translate(181,448)"/>
<path d="M0 0 C7.26 0 14.52 0 22 0 C22 7.26 22 14.52 22 22 C14.74 22 7.48 22 0 22 C0 14.74 0 7.48 0 0 Z " fill="#445D76" transform="translate(373,256)"/>
<path d="M0 0 C7.26 0 14.52 0 22 0 C22 7.26 22 14.52 22 22 C14.74 22 7.48 22 0 22 C0 14.74 0 7.48 0 0 Z " fill="#445D76" transform="translate(245,42)"/>
</svg>
